<svg xmlns="http://www.w3.org/2000/svg" width="300" height="300" viewBox="0 0 300 300">
  <g fill="none" fill-rule="evenodd">
    <rect width="155" height="63" x="73" y="92" fill="#9013FE"/>
    <rect width="154.839" height="9.714" x="72.581" y="126.286" fill="#000"/>
    <rect width="62.903" height="9.714" x="164.516" y="145.714" fill="#000"/>
    <rect width="62.903" height="9.714" x="72.581" y="145.714" fill="#000"/>
    <rect width="62.903" height="9.714" x="164.516" y="106.857" fill="#000"/>
    <rect width="62.903" height="9.714" x="72.581" y="106.857" fill="#000"/>
    <rect width="154.839" height="9.714" x="72.581" y="87.429" fill="#000"/>
    <path fill="#000" fill-rule="nonzero" d="M283.483871,0 L14.516129,0 C6.51290323,0 0,6.53771429 0,14.5714286 L0,238 L217.741935,238 L217.741935,228.285714 L9.67741935,228.285714 L9.67741935,48.5714286 L290.322581,48.5714286 L290.322581,228.285714 L217.741935,228.285714 L217.741935,238 L300,238 L300,14.5714286 C300,6.53771429 291.487097,0 283.483871,0 Z M9.67741935,38.8571429 L9.67741935,14.5714286 C9.67741935,11.8951429 11.85,9.71428571 14.516129,9.71428571 L285.483871,9.71428571 C288.15,9.71428571 290.322581,11.8951429 290.322581,14.5714286 L290.322581,38.8571429 L9.67741935,38.8571429 Z"/>
    <path fill="#9013FE" d="M163.908393,300 L137.091607,300 L134.078214,287.931964 C130.211429,286.789286 126.479643,285.236786 122.92625,283.303393 L112.251607,289.70625 L93.29375,270.748393 L99.6966071,260.07375 C97.7632143,256.520357 96.2107143,252.78375 95.0680357,248.921786 L83,245.908393 L83,219.091607 L95.0680357,216.078214 C96.2107143,212.211429 97.7632143,208.479643 99.6966071,204.92625 L93.29375,194.251607 L112.251607,175.29375 L122.92625,181.696607 C126.479643,179.763214 130.21625,178.210714 134.078214,177.068036 L137.091607,165 L163.908393,165 L166.921786,177.068036 C170.788571,178.210714 174.520357,179.763214 178.07375,181.696607 L188.748393,175.29375 L207.70625,194.251607 L201.303393,204.92625 C203.236786,208.479643 204.789286,212.21625 205.931964,216.078214 L218,219.091607 L218,245.908393 L205.931964,248.921786 C204.789286,252.788571 203.236786,256.520357 201.303393,260.07375 L207.70625,270.748393 L188.748393,289.70625 L178.07375,283.303393 C174.520357,285.236786 170.78375,286.789286 166.921786,287.931964 L163.908393,300 Z"/>
    <path fill="#000" fill-rule="nonzero" d="M150,213.714286 C139.325806,213.714286 130.645161,222.428 130.645161,233.142857 C130.645161,243.857714 139.325806,252.571429 150,252.571429 C160.674194,252.571429 169.354839,243.857714 169.354839,233.142857 C169.354839,222.428 160.674194,213.714286 150,213.714286 Z M150,242.857143 C144.662903,242.857143 140.322581,238.500286 140.322581,233.142857 C140.322581,227.785429 144.662903,223.428571 150,223.428571 C155.337097,223.428571 159.677419,227.785429 159.677419,233.142857 C159.677419,238.500286 155.337097,242.857143 150,242.857143 Z"/>
    <path fill="#000" d="M150 194.285714C143.574194 194.285714 137.201613 195.903143 131.579032 198.958286L136.190323 207.502C140.404839 205.214286 145.175806 204 150 204 166.01129 204 179.032258 217.070571 179.032258 233.142857 179.032258 237.985429 177.822581 242.774571 175.543548 247.005143L184.054839 251.634C187.098387 245.99 188.709677 239.593143 188.709677 233.142857 188.709677 211.718 171.343548 194.285714 150 194.285714zM150 262.285714C133.98871 262.285714 120.967742 249.215143 120.967742 233.142857 120.967742 228.300286 122.177419 223.511143 124.456452 219.280571L115.945161 214.651714C112.901613 220.295714 111.290323 226.692571 111.290323 233.142857 111.290323 254.567714 128.656452 272 150 272 156.425806 272 162.798387 270.382571 168.420968 267.327429L163.809677 258.783714C159.595161 261.071429 154.824194 262.285714 150 262.285714z"/>
    <rect width="9.677" height="9.714" x="19.355" y="19.429" fill="#000"/>
    <rect width="9.677" height="9.714" x="38.71" y="19.429" fill="#000"/>
    <rect width="9.677" height="9.714" x="58.065" y="19.429" fill="#000"/>
    <polygon fill="#000" points="45 187.289 45 60 68.99 60 68.99 73.227 58.504 73.694 58.504 173.439 68.99 174.062 68.99 187.289"/>
    <polygon fill="#000" points="255.99 187.412 232 187.412 232 174.277 242.486 173.658 242.486 74.599 232 74.136 232 61 255.99 61"/>
  </g>
</svg>
